<?xml version="1.0" encoding="UTF-8" ?>
<!DOCTYPE svg PUBLIC "-//W3C//DTD SVG 1.1//EN" "http://www.w3.org/Graphics/SVG/1.1/DTD/svg11.dtd">
<svg width="146pt" height="146pt" viewBox="0 0 146 146" version="1.1" xmlns="http://www.w3.org/2000/svg">
<path fill="rgb(245, 245, 245)" d=" M 0.00 0.00 L 7.38 0.00 C 4.36 1.94 1.55 4.40 0.00 7.70 L 0.00 0.00 Z" />
<path fill="#dd0000" d=" M 7.38 0.00 L 139.32 0.00 C 141.89 1.31 143.92 3.38 146.00 5.33 L 146.00 141.32 C 144.60 142.94 143.08 144.46 141.60 146.00 L 5.51 146.00 C 3.42 144.12 1.58 141.97 0.00 139.64 L 0.00 7.70 C 1.55 4.40 4.36 1.94 7.38 0.00 Z" />
<path fill="rgb(245, 245, 245)" d=" M 139.32 0.00 L 146.00 0.00 L 146.00 5.33 C 143.92 3.38 141.89 1.31 139.32 0.00 Z" />
<path fill="rgb(245, 245, 245)" d=" M 11.55 5.37 C 15.68 4.75 19.86 5.06 24.02 5.00 C 59.34 5.00 94.66 5.02 129.97 4.99 C 131.80 4.99 133.64 5.08 135.45 5.36 C 137.78 7.14 139.86 9.22 141.63 11.55 C 141.92 13.34 142.00 15.15 142.01 16.95 C 141.99 54.63 141.99 92.31 142.01 129.99 C 142.01 131.82 141.92 133.64 141.63 135.45 C 139.86 137.78 137.78 139.87 135.45 141.64 C 131.31 142.25 127.11 141.94 122.94 142.00 C 87.63 142.00 52.31 141.98 17.00 142.01 C 15.18 142.01 13.35 141.92 11.55 141.63 C 9.22 139.86 7.14 137.78 5.37 135.45 C 4.78 131.66 5.04 127.81 4.99 124.00 C 5.00 90.33 5.00 56.66 4.99 23.00 C 5.04 19.18 4.78 15.34 5.37 11.55 C 7.14 9.22 9.22 7.14 11.55 5.37 Z" />
<path fill="#dd0000" d=" M 18.75 13.03 C 21.73 10.90 25.54 11.11 29.02 11.00 C 39.02 11.04 49.02 10.93 59.02 11.04 C 62.58 11.12 66.84 11.95 68.68 15.39 C 70.44 18.97 70.39 23.38 68.99 27.07 C 67.37 30.91 62.79 31.92 59.04 31.96 C 49.37 32.07 39.69 31.96 30.02 31.99 C 27.91 32.04 25.74 32.02 23.74 32.75 C 23.30 34.10 23.41 35.54 23.30 36.93 C 25.48 37.40 27.70 37.75 29.94 37.74 C 39.28 37.77 48.61 37.70 57.95 37.75 C 61.45 37.82 65.54 38.22 67.85 41.21 C 70.50 44.95 69.91 49.77 70.01 54.08 C 69.82 59.46 70.52 64.97 69.15 70.23 C 69.09 71.27 66.80 73.34 66.56 71.35 C 63.64 63.61 66.23 55.05 64.76 47.06 C 64.23 44.47 61.55 43.10 59.09 43.09 C 49.04 42.81 38.97 43.18 28.92 42.93 C 25.49 42.77 21.13 42.11 19.61 38.53 C 18.35 35.19 18.85 30.39 22.46 28.72 C 29.15 25.76 36.78 28.73 43.56 26.46 C 40.52 24.08 41.57 19.73 41.09 16.39 C 33.88 15.88 26.12 17.69 19.32 14.79 C 19.17 14.35 18.89 13.47 18.75 13.03 Z" />
<path fill="#dd0000" d=" M 10.28 17.97 C 10.59 15.58 10.30 12.19 13.04 11.19 C 15.11 14.04 14.85 17.73 15.00 21.07 C 15.01 30.00 14.99 38.93 15.00 47.86 C 27.01 47.87 39.02 47.84 51.03 47.87 C 54.27 48.02 57.91 47.82 60.58 50.01 C 59.36 52.94 55.69 52.63 53.09 52.93 C 40.44 53.10 27.79 52.95 15.13 53.00 C 15.14 54.37 15.14 55.74 15.14 57.11 C 27.78 57.16 40.42 57.01 53.06 57.18 C 55.68 57.47 59.31 57.14 60.61 60.02 C 57.79 61.96 54.26 61.91 50.98 62.00 C 38.88 62.04 26.77 61.93 14.66 62.05 C 14.91 63.18 15.24 64.29 15.64 65.38 C 17.57 66.48 19.88 66.39 22.03 66.48 C 32.37 66.52 42.71 66.37 53.04 66.54 C 55.94 66.53 58.85 67.19 61.17 69.02 C 58.54 71.76 54.60 71.75 51.07 71.81 C 41.70 71.82 32.33 71.81 22.96 71.82 C 19.30 71.80 15.03 71.48 12.52 68.43 C 10.16 65.52 10.20 61.54 10.17 57.99 C 10.27 44.65 10.05 31.30 10.28 17.97 Z" />
<path fill="#dd0000" d=" M 99.61 16.98 C 101.32 15.93 102.97 14.58 105.02 14.29 C 107.37 14.02 109.19 15.78 110.99 16.98 C 116.83 17.25 122.79 16.39 128.54 17.68 C 132.63 18.69 134.83 22.92 134.88 26.88 C 135.18 36.91 134.90 46.94 135.01 56.97 C 134.93 61.79 135.48 66.95 132.97 71.31 C 130.62 69.09 130.43 65.78 130.35 62.77 C 130.20 51.20 130.46 39.62 130.24 28.05 C 130.31 25.38 128.68 22.57 125.89 22.13 C 120.53 21.45 115.10 22.01 109.71 21.80 C 108.50 20.78 107.33 19.69 105.95 18.90 C 104.06 19.42 102.67 20.91 100.92 21.71 C 95.30 22.23 89.58 21.26 84.00 22.24 C 80.56 23.00 79.81 26.96 79.99 29.96 C 79.99 40.32 80.02 50.69 80.00 61.06 C 79.88 64.39 80.03 68.01 78.02 70.87 C 75.32 69.67 75.55 66.35 75.27 63.87 C 75.12 51.91 75.17 39.94 75.23 27.98 C 75.16 23.69 77.16 18.78 81.73 17.71 C 87.58 16.37 93.66 17.26 99.61 16.98 Z" />
<path fill="rgb(245, 245, 245)" d=" M 46.12 16.36 C 50.42 16.44 54.73 16.32 59.03 16.41 C 61.10 16.52 63.46 16.56 65.02 18.14 C 65.47 20.38 65.48 22.73 65.13 25.00 C 64.55 26.66 62.51 26.93 61.01 27.14 C 55.25 27.60 49.46 27.06 43.70 27.46 C 43.81 26.93 44.04 25.86 44.15 25.33 L 44.88 26.66 C 45.61 23.27 45.96 19.82 46.12 16.36 Z" />
<path fill="#dd0000" d=" M 105.01 22.21 C 108.60 25.89 107.41 31.40 107.73 36.04 C 111.27 36.05 114.83 36.02 118.32 35.32 C 118.29 34.00 118.24 32.67 118.19 31.34 C 116.33 31.05 114.38 31.07 112.60 30.41 C 111.04 29.06 111.70 25.89 113.97 25.85 C 116.87 25.48 121.11 25.29 122.25 28.70 C 123.35 32.20 123.70 36.95 120.57 39.53 C 116.83 42.12 112.01 41.53 107.71 41.72 C 107.70 42.27 107.69 43.38 107.68 43.93 C 111.93 44.12 116.94 43.58 120.25 46.83 C 123.30 50.05 122.93 54.85 123.03 58.95 C 122.84 62.98 123.42 67.45 120.99 70.95 C 115.79 65.95 120.17 57.54 117.37 51.49 C 115.24 48.39 110.92 49.43 107.71 49.14 C 107.64 54.12 107.83 59.12 107.60 64.10 C 107.33 66.52 107.46 69.59 104.99 70.93 C 104.08 69.48 103.39 67.88 103.28 66.15 C 102.74 60.50 103.11 54.82 102.98 49.15 C 99.44 49.44 94.14 48.16 92.46 52.34 C 91.08 58.01 93.06 64.25 90.65 69.72 C 89.10 71.98 87.93 69.40 87.60 67.88 C 86.77 63.60 86.96 59.21 87.05 54.87 C 87.13 51.55 87.97 47.79 90.95 45.86 C 94.52 43.59 98.97 44.11 103.00 43.96 C 103.00 43.39 103.00 42.26 103.00 41.70 C 98.64 41.56 93.92 42.11 89.97 39.87 C 86.30 37.53 86.55 32.33 87.76 28.68 C 88.91 25.31 93.09 25.44 95.97 25.88 C 98.14 26.10 98.42 29.57 96.75 30.59 C 95.21 30.99 93.61 31.11 92.04 31.35 C 92.00 32.66 91.97 33.97 91.93 35.28 C 95.56 36.08 99.28 36.04 102.97 36.02 C 103.02 31.37 102.68 26.44 105.01 22.21 Z" />
<path fill="#dd0000" d=" M 10.28 77.88 C 10.25 76.01 11.98 74.24 13.88 75.19 C 15.57 77.22 14.40 80.24 15.70 82.39 C 19.56 84.74 24.40 83.42 28.68 83.85 C 29.23 81.16 29.98 77.86 33.02 77.01 C 37.47 75.61 42.50 75.58 46.94 77.06 C 49.89 78.00 50.76 81.16 51.33 83.85 C 55.29 83.63 59.36 84.20 63.24 83.20 C 66.80 82.21 64.13 77.29 66.87 75.40 C 70.12 74.93 70.06 78.77 70.04 80.98 C 70.24 83.66 69.30 86.78 66.52 87.76 C 61.58 89.63 56.16 88.82 51.00 89.00 C 51.00 89.43 51.00 90.29 51.00 90.73 C 56.37 90.88 61.96 90.13 67.13 91.93 C 70.57 92.96 71.18 98.25 68.06 100.02 C 65.01 101.68 61.38 101.58 58.00 101.69 C 43.67 101.68 29.33 101.68 15.00 101.69 C 14.99 109.79 15.02 117.90 14.99 126.01 C 14.88 129.31 15.01 132.91 12.99 135.73 C 10.18 134.31 10.50 130.74 10.24 128.08 C 10.14 119.36 10.17 110.64 10.22 101.93 C 10.23 98.18 11.32 93.76 15.03 92.05 C 19.41 90.11 24.35 90.87 29.00 90.72 C 29.00 90.29 29.00 89.43 29.00 89.00 C 23.83 88.81 18.31 89.69 13.44 87.54 C 9.74 85.87 9.96 81.26 10.28 77.88 Z" />
<path fill="#dd0000" d=" M 77.05 75.90 C 80.84 77.42 79.48 82.64 80.11 85.88 C 84.73 85.82 89.35 85.84 93.97 85.86 C 94.20 82.66 93.33 79.08 95.10 76.20 C 97.58 75.01 98.27 78.14 98.25 79.96 C 98.37 94.32 98.24 108.67 98.31 123.03 C 98.26 126.67 98.29 130.79 95.72 133.67 C 93.27 136.32 89.38 136.77 85.97 136.66 C 82.73 136.58 79.10 135.70 77.14 132.89 C 75.18 129.99 75.20 126.33 75.17 122.97 C 75.21 110.30 75.17 97.63 75.19 84.96 C 75.26 81.88 75.24 78.56 77.05 75.90 Z" />
<path fill="#dd0000" d=" M 103.64 79.60 C 105.96 76.36 110.35 76.07 113.99 76.00 C 119.06 76.04 124.15 75.79 129.20 76.27 C 130.95 76.39 132.64 77.00 134.03 78.08 C 133.95 80.14 131.72 80.61 130.08 80.88 C 123.46 81.77 116.75 80.82 110.12 81.50 C 108.78 81.73 106.61 82.24 106.74 83.99 C 106.75 86.14 105.83 89.56 108.73 90.17 C 115.78 91.73 123.27 89.50 130.22 91.77 C 135.95 93.91 136.03 101.87 133.44 106.45 C 130.70 110.34 125.37 108.12 121.57 109.58 C 119.04 111.50 120.08 115.20 119.74 117.95 C 123.21 117.96 126.69 117.95 130.17 117.97 C 130.32 116.23 130.26 114.44 130.77 112.75 C 132.01 111.41 134.85 111.89 134.86 113.96 C 135.05 119.25 135.38 124.64 134.42 129.87 C 133.64 133.77 129.87 136.27 126.06 136.49 C 120.77 136.79 115.43 136.90 110.15 136.39 C 106.48 135.99 103.17 133.29 102.51 129.58 C 101.68 125.08 101.95 120.44 102.12 115.88 C 102.10 114.15 103.33 110.71 105.50 112.48 C 106.53 114.12 106.55 116.12 106.89 117.96 C 109.56 117.95 112.24 117.95 114.91 117.99 C 115.20 113.90 114.69 109.05 117.78 105.85 C 121.22 102.74 126.56 105.67 130.12 102.99 C 130.44 101.07 130.47 99.07 130.02 97.17 C 124.94 95.00 119.18 96.39 113.81 96.00 C 113.49 100.26 114.19 105.53 110.72 108.72 C 108.11 110.24 104.61 110.01 101.87 108.90 C 99.75 104.85 105.45 105.08 107.90 104.60 C 109.30 102.09 108.91 99.10 109.07 96.34 C 106.63 95.69 103.62 94.95 102.87 92.14 C 101.69 88.11 101.37 83.31 103.64 79.60 Z" />
<path fill="rgb(245, 245, 245)" d=" M 33.35 83.54 C 35.17 80.42 39.09 81.53 42.05 81.38 C 43.89 81.08 45.33 82.17 46.47 83.46 C 42.11 83.95 37.71 83.91 33.35 83.54 Z" />
<path fill="rgb(245, 245, 245)" d=" M 34.09 89.03 C 37.70 89.06 41.34 88.78 44.94 89.16 C 45.31 89.47 46.05 90.11 46.43 90.43 C 42.35 90.89 38.24 90.70 34.14 90.71 C 34.13 90.29 34.10 89.45 34.09 89.03 Z" />
<path fill="rgb(245, 245, 245)" d=" M 80.00 91.06 C 84.63 91.06 89.25 91.06 93.88 91.06 C 93.88 97.04 93.88 103.02 93.88 109.00 C 89.25 109.00 84.63 109.00 80.00 109.00 C 80.00 103.02 80.00 97.04 80.00 91.06 Z" />
<path fill="rgb(245, 245, 245)" d=" M 14.18 96.62 C 18.98 95.44 23.98 96.18 28.87 96.02 L 28.95 96.99 C 24.03 96.88 19.06 97.36 14.18 96.62 Z" />
<path fill="rgb(245, 245, 245)" d=" M 33.12 96.26 C 37.63 95.95 42.36 95.42 46.74 96.75 C 42.24 96.99 37.50 97.64 33.12 96.26 Z" />
<path fill="rgb(245, 245, 245)" d=" M 51.00 96.01 C 55.91 96.16 60.91 95.51 65.75 96.58 C 60.87 97.35 55.92 96.88 51.00 97.00 L 51.00 96.01 Z" />
<path fill="#dd0000" d=" M 37.95 101.83 C 41.28 101.65 40.95 105.70 40.99 107.96 C 41.27 110.13 40.37 113.02 42.30 114.61 C 44.24 114.70 47.08 115.47 48.24 113.38 C 48.99 109.53 48.22 105.23 50.74 101.89 C 51.78 103.44 52.78 105.02 53.82 106.56 C 53.96 104.39 56.33 104.46 57.87 104.28 C 60.87 104.18 64.01 103.99 66.89 105.03 C 71.02 106.46 71.12 113.48 66.97 114.96 C 62.66 116.38 58.03 115.91 53.56 115.99 C 52.67 119.08 49.66 119.98 46.80 120.29 L 46.79 121.31 C 52.21 121.39 57.64 121.09 63.05 121.56 C 65.38 121.87 68.14 122.31 69.48 124.49 C 70.97 127.09 69.73 130.83 66.79 131.71 C 60.55 133.71 53.89 132.55 47.46 132.90 C 47.04 133.47 46.19 134.59 45.77 135.16 C 43.77 136.50 42.25 134.42 41.35 132.89 C 34.98 132.77 28.61 133.06 22.25 132.72 C 20.08 132.45 17.28 132.38 16.35 129.99 C 18.84 128.16 22.03 128.13 24.99 128.02 C 30.66 127.95 36.33 128.03 42.00 128.00 C 42.00 127.50 42.00 126.50 42.00 126.00 C 36.67 125.98 31.33 126.02 26.00 126.00 C 22.69 125.88 19.06 126.06 16.25 123.98 C 17.68 121.58 20.66 121.63 23.11 121.41 C 29.40 121.19 35.71 121.37 42.01 121.31 L 42.00 120.32 C 39.40 119.97 37.16 118.72 36.53 115.99 C 31.37 115.86 26.05 116.51 21.03 115.06 C 16.25 113.65 16.78 105.53 21.74 104.78 C 26.12 104.16 31.36 103.24 35.21 105.97 C 35.17 107.38 34.26 108.36 32.88 108.56 C 29.10 109.32 25.19 108.77 21.38 109.38 C 21.80 109.75 22.64 110.49 23.06 110.86 C 27.44 111.47 31.87 111.10 36.28 111.18 C 36.56 108.07 35.47 104.26 37.95 101.83 Z" />
<path fill="rgb(245, 245, 245)" d=" M 52.54 107.58 C 56.56 109.40 60.99 108.84 65.25 109.22 C 65.25 109.61 65.25 110.39 65.26 110.78 C 61.26 111.36 57.22 111.16 53.20 111.20 C 53.04 110.30 52.71 108.49 52.54 107.58 Z" />
<path fill="rgb(245, 245, 245)" d=" M 80.00 113.81 C 84.58 113.81 89.16 113.81 93.73 113.81 C 93.46 119.17 94.46 124.72 92.93 129.93 C 91.57 132.98 87.60 131.81 84.98 132.02 C 82.86 132.31 80.72 131.11 80.41 128.89 C 79.58 123.92 80.16 118.83 80.00 113.81 Z" />
<path fill="rgb(245, 245, 245)" d=" M 106.58 123.05 C 114.53 123.01 122.47 123.01 130.42 123.05 C 130.34 126.11 130.68 130.53 126.90 131.50 C 121.51 132.36 115.89 132.20 110.47 131.64 C 106.35 130.96 106.61 126.23 106.58 123.05 Z" />
<path fill="rgb(245, 245, 245)" d=" M 46.83 126.00 C 51.92 126.05 57.01 125.89 62.10 126.07 C 63.50 125.94 64.70 126.56 65.73 127.44 C 59.48 128.44 53.13 127.84 46.83 128.00 C 46.83 127.50 46.83 126.50 46.83 126.00 Z" />
<path fill="rgb(245, 245, 245)" d=" M 0.00 139.64 C 1.58 141.97 3.42 144.12 5.51 146.00 L 0.00 146.00 L 0.00 139.64 Z" />
<path fill="rgb(245, 245, 245)" d=" M 141.60 146.00 C 143.08 144.46 144.60 142.94 146.00 141.32 L 146.00 146.00 L 141.60 146.00 Z" />
</svg>
